<svg width="136" height="24" viewBox="0 0 136 24" fill="none" xmlns="http://www.w3.org/2000/svg">
<g clip-path="url(#clip0_403_2582)">
<path d="M32.4615 18.3V5.68042H36.4994C37.1724 5.68042 37.7801 5.84547 38.3206 6.17563C38.8611 6.50032 39.2911 6.94111 39.6103 7.49978C39.935 8.05304 40.0965 8.67522 40.0965 9.36633C40.0965 10.0574 39.9314 10.6905 39.6012 11.251C39.2766 11.8097 38.8412 12.2523 38.2934 12.5752C37.7529 12.8999 37.1542 13.0613 36.4994 13.0613H33.7241V18.2982H32.4615V18.3ZM33.7241 11.8006H36.4014C36.8459 11.8006 37.2522 11.6918 37.6186 11.4759C37.9905 11.2528 38.2861 10.9554 38.502 10.5835C38.7233 10.2044 38.8358 9.77809 38.8358 9.30286C38.8358 8.82758 38.7251 8.40494 38.502 8.03129C38.2861 7.65215 37.9905 7.35466 37.6186 7.13883C37.2522 6.91568 36.8459 6.80504 36.4014 6.80504H33.7241V11.7988V11.8006Z" fill="#162B4E"/>
<path d="M44.2958 5.68042H45.8649L50.4613 18.3H49.1188L48.1358 15.5955H42.0337L41.0506 18.3H39.7083L44.2958 5.68042ZM42.4926 14.3329H47.6658L45.0795 7.22955L42.4926 14.3329Z" fill="#162B4E"/>
<path d="M60.2476 5.68042V6.94293H55.9211V18.3H54.6588V6.94293H50.3418V5.68042H60.2476Z" fill="#162B4E"/>
<path d="M71.6031 5.68042V6.94293H67.2766V18.3H66.0142V6.94293H61.6968V5.68042H71.6031Z" fill="#162B4E"/>
<path d="M73.4113 18.3V5.68042H81.0917V6.94293H74.6741V10.9082H79.9831V12.1707H74.6741V17.0375H81.0917V18.3H73.4113Z" fill="#162B4E"/>
<path d="M83.2015 18.3V5.68042H87.4821C88.1553 5.68042 88.7631 5.84552 89.3033 6.17563C89.844 6.50032 90.2737 6.94111 90.593 7.49983C90.9105 8.05308 91.0704 8.67526 91.0704 9.36637C91.0704 9.98491 90.9435 10.5473 90.6913 11.0515C90.4392 11.5558 90.0926 11.9748 89.6555 12.3049C89.2219 12.6351 88.7319 12.8546 88.1861 12.9634L91.2679 18.3H89.8076L86.7694 13.0632H84.4622V18.3H83.1993H83.2015ZM84.4639 11.8007H87.3751C87.8196 11.8007 88.2259 11.6919 88.5924 11.476C88.9641 11.2529 89.26 10.9554 89.4757 10.5835C89.6988 10.2044 89.8097 9.77814 89.8097 9.30286C89.8097 8.82763 89.6988 8.40498 89.4757 8.03129C89.26 7.65219 88.9641 7.3547 88.5924 7.13883C88.2259 6.91573 87.8196 6.80508 87.3751 6.80508H84.4639V11.7989V11.8007Z" fill="#162B4E"/>
<path d="M93.4989 18.3V5.68042H94.8687L101.529 16.0199V5.68042H102.792V18.3H101.431L94.7617 7.96055V18.3H93.4989Z" fill="#162B4E"/>
<path d="M0.5271 0.0118103V11.9911H12.5064V0.0118103H0.5271ZM8.36696 10.0937L6.52038 7.70477L4.68285 10.0937H2.11068L5.2379 6.04136L2.13607 2.01259H4.70824L6.52038 4.36166L8.34157 2.01259H10.9137L7.81192 6.04136L10.9392 10.0937H8.36696Z" fill="#162B4E"/>
<path d="M10.9392 10.0936H8.36702L6.52041 7.70468L4.68289 10.0936H2.11072L5.23797 6.04127L2.13611 2.01251H4.70828L6.52041 4.36158L8.34163 2.01251H10.9138L7.81194 6.04127L10.9392 10.0936Z" fill="#162B4E"/>
<path d="M24.4856 11.991V23.9685H22.3216C22.5847 23.515 22.8005 23.0161 22.9656 22.472C23.1996 21.6956 23.3175 20.8684 23.3175 19.9869C23.3175 19.1053 23.1996 18.28 22.9656 17.5108C22.7316 16.7345 22.3996 16.0524 21.9715 15.4665C21.5489 14.8788 21.0446 14.4198 20.4569 14.0916C19.871 13.756 19.2216 13.5891 18.5123 13.5891C17.8031 13.5891 17.1537 13.756 16.566 14.0916C15.9801 14.4198 15.4703 14.8788 15.035 15.4665C14.6069 16.0524 14.275 16.7345 14.041 17.5108C13.8052 18.28 13.6891 19.1053 13.6891 19.9869C13.6891 20.8684 13.8052 21.6956 14.041 22.472C14.206 23.0161 14.4219 23.515 14.6849 23.9685H12.5063V11.991H24.4856Z" fill="#162B4E"/>
<path d="M22.9656 17.511C22.7316 16.7346 22.3997 16.0526 21.9716 15.4666C21.5489 14.879 21.0447 14.42 20.4569 14.0917C19.871 13.7561 19.2217 13.5892 18.5124 13.5892C17.8031 13.5892 17.1538 13.7561 16.566 14.0917C15.9801 14.42 15.4704 14.879 15.035 15.4666C14.6069 16.0526 14.275 16.7346 14.041 17.511C13.8052 18.2801 13.6891 19.1054 13.6891 19.987C13.6891 20.8686 13.8052 21.6957 14.041 22.4721C14.2061 23.0163 14.422 23.5151 14.685 23.9686H22.3217C22.5847 23.5151 22.8006 23.0163 22.9656 22.4721C23.1996 21.6957 23.3175 20.8686 23.3175 19.987C23.3175 19.1054 23.1996 18.2801 22.9656 17.511ZM20.7744 21.9171C20.5984 22.5229 20.3227 23.0127 19.9472 23.3882C19.5717 23.7655 19.0929 23.9523 18.5124 23.9523C17.9319 23.9523 17.4585 23.7655 17.0775 23.3882C16.702 23.0072 16.4209 22.5156 16.2323 21.9171C16.0508 21.3112 15.9602 20.6691 15.9602 19.987C15.9602 19.4755 16.0091 18.9857 16.1089 18.5159C16.2141 18.0389 16.3701 17.6126 16.5751 17.2371C16.7873 16.8616 17.0503 16.5641 17.3678 16.3464C17.6907 16.1305 18.0716 16.0217 18.5124 16.0217C19.0692 16.0217 19.5354 16.2031 19.9109 16.5677C20.2864 16.9251 20.5694 17.4039 20.7562 18.0044C20.9503 18.603 21.0465 19.2651 21.0465 19.987C21.0465 20.6691 20.9558 21.3112 20.7744 21.9171Z" fill="#162B4E"/>
<path d="M12.5064 11.991V23.9685H10.2825C10.3115 23.9068 10.3405 23.8433 10.3677 23.778C10.5927 23.2629 10.7033 22.7132 10.7033 22.131C10.7033 21.3455 10.5219 20.6308 10.1573 19.9923C9.79275 19.352 9.29026 18.8368 8.64811 18.4505C8.01324 18.0623 7.27496 17.8537 6.43513 17.8246L5.7458 17.8065L6.06326 16.2737H10.2444V13.843H4.08787L2.7383 20.2372H5.96713C6.55483 20.2372 7.01741 20.3261 7.35116 20.502C7.68672 20.6725 7.92257 20.9011 8.05677 21.1895C8.19826 21.4761 8.26901 21.7917 8.26901 22.131C8.26901 22.4702 8.18375 22.784 8.01324 23.0651C7.84818 23.3408 7.62508 23.5622 7.34392 23.7254C7.10085 23.8705 6.8378 23.9503 6.55123 23.9685H6.29906C6.00703 23.9503 5.73675 23.8705 5.49007 23.7254C5.20888 23.5622 4.98213 23.3408 4.81164 23.0651C4.64657 22.784 4.56494 22.472 4.56494 22.131H2.13063C2.13063 22.7858 2.26667 23.3989 2.54058 23.9685H0.5271V11.991H12.5064Z" fill="#0060E4"/>
<path d="M6.29905 23.9686H2.54057C2.26666 23.399 2.13062 22.7859 2.13062 22.1311H4.56493C4.56493 22.4721 4.64656 22.7841 4.81163 23.0653C4.98213 23.3409 5.20887 23.5623 5.49003 23.7255C5.73674 23.8706 6.00702 23.9504 6.29905 23.9686Z" fill="#0060E4"/>
<path d="M10.7035 22.1311C10.7035 22.7134 10.5928 23.263 10.3678 23.7781C10.3406 23.8434 10.3116 23.9069 10.2826 23.9686H6.55133C6.8379 23.9504 7.10094 23.8706 7.34402 23.7255C7.62518 23.5623 7.84828 23.3409 8.01333 23.0652C8.18385 22.7841 8.2691 22.4721 8.2691 22.1311C8.2691 21.79 8.19836 21.4762 8.05687 21.1896C7.92266 20.9012 7.68686 20.6727 7.35125 20.5021C7.01751 20.3262 6.55492 20.2373 5.96723 20.2373H2.7384L4.08798 13.8431H10.2445V16.2738H6.06336L5.74594 17.8066L6.43523 17.8248C7.2751 17.8538 8.01333 18.0624 8.64825 18.4506C9.29036 18.8369 9.79284 19.3521 10.1574 19.9924C10.522 20.6309 10.7035 21.3456 10.7035 22.1311Z" fill="#0060E4"/>
<path d="M12.5063 0.0118103V11.9911H24.4856V0.0118103H12.5063ZM22.4595 9.78536L14.7974 2.01259H22.4595V9.78536Z" fill="#0060E4"/>
<path d="M22.4595 2.01251V9.78527L14.7974 2.01251H22.4595Z" fill="#0060E4"/>
<path d="M5.49003 23.7255C5.73674 23.8706 6.00702 23.9504 6.29905 23.9686H2.54057C2.26666 23.399 2.13062 22.7859 2.13062 22.1311H4.56493C4.56493 22.4721 4.64656 22.7841 4.81163 23.0653C4.98213 23.3409 5.20887 23.5623 5.49003 23.7255Z" fill="white"/>
<path d="M10.7035 22.1311C10.7035 22.7134 10.5928 23.263 10.3678 23.7781C10.3406 23.8434 10.3116 23.9069 10.2826 23.9686H6.55133C6.8379 23.9504 7.10094 23.8706 7.34402 23.7255C7.62518 23.5623 7.84828 23.3409 8.01333 23.0652C8.18385 22.7841 8.2691 22.4721 8.2691 22.1311C8.2691 21.79 8.19836 21.4762 8.05687 21.1896C7.92266 20.9012 7.68686 20.6727 7.35125 20.5021C7.01751 20.3262 6.55492 20.2373 5.96723 20.2373H2.7384L4.08798 13.8431H10.2445V16.2738H6.06336L5.74594 17.8066L6.43523 17.8248C7.2751 17.8538 8.01333 18.0624 8.64825 18.4506C9.29036 18.8369 9.79284 19.3521 10.1574 19.9924C10.522 20.6309 10.7035 21.3456 10.7035 22.1311Z" fill="white"/>
<path d="M10.9392 10.0936H8.36702L6.52041 7.70468L4.68289 10.0936H2.11072L5.23797 6.04127L2.13611 2.01251H4.70828L6.52041 4.36158L8.34163 2.01251H10.9138L7.81194 6.04127L10.9392 10.0936Z" fill="white"/>
<path d="M22.9656 17.511C22.7316 16.7346 22.3997 16.0526 21.9716 15.4666C21.5489 14.879 21.0447 14.42 20.4569 14.0917C19.871 13.7561 19.2217 13.5892 18.5124 13.5892C17.8031 13.5892 17.1538 13.7561 16.566 14.0917C15.9801 14.42 15.4704 14.879 15.035 15.4666C14.6069 16.0526 14.275 16.7346 14.041 17.511C13.8052 18.2801 13.6891 19.1054 13.6891 19.987C13.6891 20.8686 13.8052 21.6957 14.041 22.4721C14.2061 23.0163 14.422 23.5151 14.685 23.9686H22.3217C22.5847 23.5151 22.8006 23.0163 22.9656 22.4721C23.1996 21.6957 23.3175 20.8686 23.3175 19.987C23.3175 19.1054 23.1996 18.2801 22.9656 17.511ZM20.7744 21.9171C20.5984 22.5229 20.3227 23.0127 19.9472 23.3882C19.5717 23.7655 19.0929 23.9523 18.5124 23.9523C17.9319 23.9523 17.4585 23.7655 17.0775 23.3882C16.702 23.0072 16.4209 22.5156 16.2323 21.9171C16.0508 21.3112 15.9602 20.6691 15.9602 19.987C15.9602 19.4755 16.0091 18.9857 16.1089 18.5159C16.2141 18.0389 16.3701 17.6126 16.5751 17.2371C16.7873 16.8616 17.0503 16.5641 17.3678 16.3464C17.6907 16.1305 18.0716 16.0217 18.5124 16.0217C19.0692 16.0217 19.5354 16.2031 19.9109 16.5677C20.2864 16.9251 20.5694 17.4039 20.7562 18.0044C20.9503 18.603 21.0465 19.2651 21.0465 19.987C21.0465 20.6691 20.9558 21.3112 20.7744 21.9171Z" fill="white"/>
<path d="M21.0465 19.9869C21.0465 20.669 20.9558 21.3111 20.7744 21.917C20.5984 22.5228 20.3227 23.0126 19.9472 23.3881C19.5718 23.7654 19.0929 23.9522 18.5124 23.9522C17.932 23.9522 17.4585 23.7654 17.0776 23.3881C16.7021 23.0072 16.421 22.5155 16.2323 21.917C16.0509 21.3111 15.9602 20.669 15.9602 19.9869C15.9602 19.4754 16.0092 18.9856 16.109 18.5158C16.2142 18.0388 16.3702 17.6125 16.5751 17.237C16.7874 16.8615 17.0504 16.564 17.3678 16.3463C17.6907 16.1305 18.0716 16.0216 18.5124 16.0216C19.0693 16.0216 19.5355 16.203 19.911 16.5676C20.2865 16.925 20.5695 17.4038 20.7563 18.0043C20.9504 18.6029 21.0465 19.265 21.0465 19.9869Z" fill="#162B4E"/>
<path d="M22.4595 2.01251V9.78527L14.7974 2.01251H22.4595Z" fill="white"/>
<path d="M121.066 12.5446H116.155C115.849 12.4865 115.491 12.4575 115.085 12.4575H110.769L112.589 3.82495H120.824V7.32407H115.435L115.085 8.95841L115.832 8.98202C116.935 9.02733 117.913 9.31213 118.76 9.83272C119.607 10.3534 120.273 11.0426 120.755 11.897C120.873 12.1074 120.977 12.3233 121.066 12.5446Z" fill="#162B4E"/>
<path d="M121.477 14.7429C121.477 15.5211 121.33 16.2557 121.035 16.9487C120.739 17.6416 120.331 18.2511 119.81 18.7807C119.288 19.3014 118.682 19.7131 117.989 20.016C117.298 20.3117 116.554 20.4605 115.762 20.4605C114.68 20.4605 113.704 20.1992 112.834 19.6787C111.97 19.149 111.287 18.4542 110.781 17.5908C110.274 16.7183 110.022 15.7696 110.022 14.7429H113.521C113.521 15.1565 113.623 15.5302 113.826 15.8639C114.028 16.1977 114.296 16.4662 114.63 16.6693C114.972 16.8634 115.35 16.9595 115.762 16.9595C116.173 16.9595 116.536 16.8634 116.87 16.6693C117.203 16.4662 117.472 16.1977 117.675 15.8639C117.877 15.5302 117.978 15.1565 117.978 14.7429C117.978 14.3293 117.897 13.9538 117.733 13.6128C117.577 13.2627 117.291 12.9816 116.87 12.773C116.676 12.6732 116.442 12.597 116.164 12.5462H121.066C121.339 13.2246 121.477 13.9575 121.477 14.7429Z" fill="#0060E4"/>
<path d="M135.434 12.5462C135.39 13.5076 135.236 14.4182 134.968 15.2799C134.656 16.2993 134.217 17.1972 133.649 17.9753C133.081 18.7535 132.405 19.363 131.619 19.8074C130.841 20.2428 129.987 20.4605 129.052 20.4605C128.118 20.4605 127.26 20.2428 126.475 19.8074C125.697 19.363 125.02 18.7535 124.445 17.9753C123.87 17.1972 123.422 16.2993 123.103 15.2799C122.841 14.4182 122.691 13.5076 122.649 12.5462H125.921C125.96 13.1865 126.067 13.8015 126.241 14.3946C126.468 15.1474 126.814 15.766 127.28 16.2485C127.747 16.7237 128.338 16.9595 129.052 16.9595C129.767 16.9595 130.368 16.7237 130.826 16.2485C131.293 15.7751 131.636 15.1601 131.853 14.4055C132.022 13.8123 132.127 13.192 132.163 12.5462H135.434Z" fill="#162B4E"/>
<path d="M135.446 11.9912C135.446 12.178 135.443 12.3631 135.434 12.5463H132.163C132.174 12.3631 132.18 12.178 132.18 11.9912C132.18 11.0969 132.064 10.2716 131.83 9.51699C131.596 8.76238 131.245 8.16012 130.779 7.71028C130.32 7.25133 129.745 7.02099 129.052 7.02099C128.508 7.02099 128.039 7.16066 127.641 7.44181C127.244 7.71391 126.917 8.08578 126.661 8.56102C126.404 9.0272 126.213 9.55689 126.09 10.1482C125.965 10.7377 125.903 11.3527 125.903 11.9912C125.903 12.178 125.909 12.3631 125.921 12.5463H122.649C122.64 12.3631 122.636 12.178 122.636 11.9912C122.636 10.8248 122.792 9.731 123.102 8.71338C123.422 7.68671 123.87 6.78337 124.445 6.00697C125.02 5.22879 125.697 4.62112 126.475 4.18578C127.26 3.74318 128.12 3.52188 129.052 3.52188C129.985 3.52188 130.841 3.74318 131.619 4.18578C132.404 4.62112 133.081 5.22879 133.649 6.00697C134.217 6.78337 134.655 7.68671 134.968 8.71338C135.287 9.731 135.446 10.8248 135.446 11.9912Z" fill="#0060E4"/>
</g>
<defs>
<clipPath id="clip0_403_2582">
<rect width="134.946" height="24" fill="white" transform="translate(0.5271)"/>
</clipPath>
</defs>
</svg>
